<?xml version="1.0" encoding="UTF-8"?><svg id="Layer_2" xmlns="http://www.w3.org/2000/svg" viewBox="0 0 87.87 88.59"><g id="Layer_1-2"><path d="m43.62,43.16c-6.64,0-11.83-9.48-11.83-21.58S36.98,0,43.62,0s11.83,9.48,11.83,21.58-5.19,21.58-11.83,21.58Zm0-41.27c-5.4,0-10,9-10,19.71s4.6,19.69,10,19.69,10-9,10-19.71S49.02,1.89,43.62,1.89Z"/><ellipse cx="43.62" cy="21.58" rx="4.15" ry="12.32"/><path d="m72.72,36.53c-3.52,0-6,2.46-9,5.32-4.18,4.07-9.38,9.13-19.81,9.19h-.12c-8.58,0-13.89-4.68-18.57-8.81-3.46-3.06-6.45-5.69-10.07-5.69-8.35,0-15.15,7.25-15.15,16.17,0,21.12,18.06,35.88,43.93,35.88s43.94-14.77,43.94-35.9c0-8.91-6.8-16.16-15.15-16.16Zm-46.44,47.36c-4.63-1.5-8.95-3.84-12.75-6.89.19-1.71.6-3.4,1.24-5,1.19-2.88,3-4.72,5-4.72s3.85,1.84,5,4.72c.99,2.55,1.48,5.27,1.44,8,.08.78.08,2.15.07,3.89Zm2.92-4c-.04-2.73.44-5.45,1.42-8,1.19-2.88,3-4.72,5-4.72s3.85,1.84,5,4.72c.99,2.55,1.48,5.27,1.44,8,0,1.33,0,3.7-.05,6.65-4.34-.1-8.65-.7-12.85-1.79.06-2.12.04-3.86.04-4.86Zm15.87,0c-.04-2.73.45-5.45,1.44-8,1.19-2.88,3-4.72,5-4.72s3.85,1.84,5,4.72c.99,2.55,1.48,5.27,1.44,8v5c-4.2,1.03-8.5,1.59-12.82,1.65-.03-2.95-.06-5.32-.06-6.65Zm15.87,0c-.04-2.73.45-5.45,1.44-8,1.19-2.88,3-4.72,5-4.72s3.85,1.84,5,4.72c.69,1.77,1.12,3.63,1.28,5.52-3.83,2.95-8.15,5.2-12.76,6.63.06-1.78.05-3.22.05-4.15h-.01Zm20.73-37.54c.13,3.87.18,7,.18,8.62.04,2.73-.45,5.45-1.44,8-1.19,2.88-3,4.72-5,4.72s-3.85-1.84-5-4.72c-.99-2.55-1.48-5.27-1.44-8,0-2,0-6.13.16-11.13,1.06-.81,2.35-1.27,3.68-1.32,3.34.05,6.53,1.43,8.86,3.83Zm-16.54.93l.67-.65c.13,3.74.17,6.77.17,8.35.04,2.73-.45,5.45-1.44,8-1.19,2.88-3,4.72-5,4.72s-3.85-1.84-5-4.72c-.91-2.36-1.39-4.86-1.41-7.38,5.44-1.92,8.98-5.37,12.02-8.32h0Zm-21.34,9.76h.15c2.04,0,4.08-.21,6.08-.63-.1,2.25-.58,4.46-1.4,6.55-1.19,2.88-3,4.72-5,4.72s-3.85-1.84-5-4.72c-.85-2.19-1.31-4.51-1.38-6.86,2.13.62,4.33.94,6.55.94Zm-9.56-2c.04,2.73-.45,5.45-1.44,8-1.19,2.88-3,4.72-5,4.72s-3.85-1.84-5-4.72c-.99-2.55-1.48-5.27-1.44-8,0-1.72,0-5.19.11-9.42.82.67,1.65,1.4,2.52,2.17,2.77,2.45,6.04,5.32,10.25,7.21v.04Zm-19.08-12.51c1.02.03,2.01.3,2.91.78.23,5.24.29,9.64.29,11.67.04,2.73-.45,5.45-1.44,8-1.19,2.88-3,4.72-5,4.72s-3.85-1.84-5-4.72c-.99-2.55-1.48-5.27-1.44-8,0-1.5,0-4.32.08-7.82,2.37-2.88,5.88-4.57,9.6-4.63Z"/><circle cx="66.54" cy="19.14" r="3.42"/><circle cx="61.95" cy="28.84" r="2.33"/><circle cx="71" cy="29.23" r="1.94"/><circle cx="20.98" cy="19.14" r="3.42"/><circle cx="25.56" cy="28.84" r="2.33"/><circle cx="16.51" cy="29.23" r="1.94"/></g></svg>