<?xml version="1.0" encoding="UTF-8"?><svg id="Layer_2" xmlns="http://www.w3.org/2000/svg" viewBox="0 0 89.44 78.94"><g id="Layer_1-2"><path d="m24.42,25.17c0,.06,0,.13,0,.19v.07c1.97,8.26,8.75,14.51,17.15,15.77h.07c.54.09,1.1.17,1.65.16h.22c.55-.02,1.1.04,1.66.03h0c.57-.01,1.14-.03,1.7-.12h.21c.56,0,1.1-.12,1.65-.23h.12c4.61-.96,8.76-3.46,11.76-7.09l.07-.08c.35-.43.69-.87.97-1.31l.07-.1c.3-.44.6-.89.87-1.35l.05-.08c.26-.46.5-.91.73-1.39l.12-.26c.21-.46.4-.92.59-1.39l.11-.3c.18-.48.34-1.01.47-1.48l.15-.22c2.87-11.11-3.81-22.43-14.92-25.3-11.11-2.87-22.43,3.81-25.3,14.92-.81,3.14-.87,6.42-.19,9.59Zm25.87-3.09c9.71.17,12.66,1.47,12.98,1.96-.11.58-.24,1.16-.4,1.72,0,.16-.1.32-.16.48-.12.4-.25.8-.4,1.19-.08.19-.16.37-.24.56-.15.35-.3.7-.47,1.01s-.2.39-.31.59-.35.62-.53.91l-.39.6c-.18.27-.38.54-.57.8s-.31.42-.47.61-.38.45-.57.66-.38.43-.58.63-.34.33-.51.49c-.93.88-1.94,1.67-3.02,2.34l-.33.21c-.33.2-.66.38-.99.54l-.5.25c-.32.16-.64.3-.99.43l-.62.24-.93.32-.77.22-.87.21c-.33.07-.67.13-1,.17l-.71.11c-.62.11-1.21.16-1.82.17h0c-.6.01-1.19.03-1.78-.05l-.73-.11c-.32,0-.64-.07-1-.13s-.66-.12-1-.2l-.49-.09c-.41-.11-.83-.22-1.23-.35l-.15-.05c-6.08-2.14-10.7-7.16-12.32-13.4v-.19c.85-1.35,11.14-3.12,23.86-2.9Zm-7.5-1.82c.67-2.55,3.29-4.07,5.84-3.4,1.65.44,2.94,1.72,3.39,3.36-2.21-.09-4.56-.1-6.92-.04l-2.31.09Zm1.45-18.47c10.42-.24,19.07,8,19.33,18.42.01.59.03,1.17-.05,1.74-1.87-.89-5.59-1.44-10.04-1.67.12-.61.17-1.23.16-1.84-.12-4.97-4.24-8.9-9.21-8.78s-8.9,4.24-8.78,9.21c.02.64.1,1.27.26,1.88-4.4.48-8.08,1.19-9.95,2.19-.07-.6-.12-1.22-.13-1.83-.24-10.42,8.01-19.07,18.43-19.33Z"/><path d="m44.93,78.93c24.66-.13,44.62-18.86,44.51-41.72,0-.52-.43-.95-.96-.94-.25,0-.5.11-.68.29-.19.17-19.49,20.18-42.99,20.3-23.5.12-43-19.69-43.19-19.89-.37-.37-.97-.38-1.34-.01-.19.19-.29.44-.28.71.12,22.86,20.27,41.39,44.93,41.26Zm24.45-9.12c-3.44,2.25-7.18,4.01-11.11,5.23l5.83-15.35,5.28,10.12Zm-34.9-3.18l.02-9c2.54.56,5.13.92,7.73,1.06l-7.75,7.94Zm-3.58,8.31c-3.87-1.22-7.56-2.96-10.96-5.18l5.04-9.87,5.92,15.05Z"/></g></svg>