<?xml version="1.0" encoding="UTF-8"?><svg id="Layer_2" xmlns="http://www.w3.org/2000/svg" viewBox="0 0 89.6 87.27"><g id="Layer_1-2"><path d="m44.6,9.71c-5.57,0-10.08,4.51-10.08,10.08s4.51,10.08,10.08,10.08,10.08-4.51,10.08-10.08-4.51-10.08-10.08-10.08h0Zm2.59,8.79c-2.21,0-4-1.79-4-4s1.79-4,4-4,4,1.79,4,4-1.79,4-4,4Z"/><path d="m44.6,39.56c10.92,0,19.78-8.86,19.78-19.78S55.53,0,44.6,0c-10.92,0-19.78,8.86-19.78,19.78,0,0,0,0,0,0,.02,10.92,8.86,19.76,19.78,19.77Zm0-37.55c9.82,0,17.78,7.96,17.78,17.78s-7.96,17.78-17.78,17.78-17.78-7.96-17.78-17.78h0c.01-9.82,7.96-17.77,17.78-17.78Z"/><path d="m80.3,50.1c1.68-1.14,3.23-2.46,4.64-3.92.27-.48.09-1.09-.39-1.36-.32-.18-.71-.17-1.02.03-7.66,8.14-24.02,13.42-41.68,13.42h-.25c-7.44.09-14.85-.92-22-3l-2.52-12.38c-.15-.53-.7-.85-1.23-.7-.21.06-.4.18-.53.36l-5.65,8.5c-3-1.65-5.74-3.74-8.13-6.2-.46-.3-1.08-.17-1.38.29-.21.32-.22.72-.03,1.05,2.69,2.77,5.8,5.09,9.21,6.9.02.03.05.06.08.08.07.04.15.07.23.09,8.46,4.51,19.55,7,32,7h.22c7.78,0,15.51-1.06,23-3.16-1.5,4.68-2.33,9.55-2.47,14.47,0,8.7,6.1,15.7,13.6,15.7s13.6-7,13.6-15.7c0-7.23-5.47-18.7-9.3-21.47Zm-64.64-4.55l1.89,9c-2.11-.73-4.17-1.6-6.16-2.6l4.27-6.4Zm60.34,39.82c-6.43,0-11.66-6.19-11.66-13.8,0-3.62,1.24-12.13,3-15.24,1.64-.54,3.22-1.14,4.73-1.78,1.09,1.76,4.52,8.2,4,18.88,0,.52.4.96.92,1h.05c.52,0,.96-.4,1-.92.57-10.82-2.73-17.51-4.1-19.79,1.55-.72,3.06-1.53,4.52-2.42h0c.18-.01.36.04.5.15,3,1.7,8.73,13.13,8.73,20.05-.03,7.68-5.26,13.87-11.69,13.87Z"/><path d="m70.6,64.36c-.91,0-1.64-.73-1.64-1.64s.73-1.64,1.64-1.64,1.64.73,1.64,1.64h0c0,.91-.73,1.64-1.64,1.64Zm0-2.3c-.37,0-.67.3-.67.67,0,.37.3.67.67.67.37,0,.67-.3.67-.67h0c0-.37-.3-.67-.67-.67Z"/><path d="m83.24,69.4c-1.05,0-1.9-.85-1.9-1.9,0-1.05.85-1.9,1.9-1.9,1.05,0,1.9.85,1.9,1.9s-.85,1.9-1.9,1.9h0Zm0-2.83c-.51,0-.93.42-.93.93s.42.93.93.93.93-.42.93-.93c0-.51-.42-.93-.93-.93Z"/><path d="m73.68,78.14c-.89,0-1.62-.73-1.62-1.62s.73-1.62,1.62-1.62,1.62.73,1.62,1.62-.73,1.62-1.62,1.62h0Zm0-2.27c-.36,0-.65.29-.65.65,0,.36.29.65.65.65.36,0,.65-.29.65-.65,0-.36-.29-.65-.65-.65,0,0,0,0,0,0Z"/></g></svg>